<?xml version="1.0" standalone="no"?>
<!DOCTYPE svg PUBLIC "-//W3C//DTD SVG 20010904//EN"
 "http://www.w3.org/TR/2001/REC-SVG-20010904/DTD/svg10.dtd">
<svg version="1.0" xmlns="http://www.w3.org/2000/svg"
 width="300.000000pt" height="300.000000pt" viewBox="0 0 300.000000 300.000000"
 preserveAspectRatio="xMidYMid meet">
<metadata>
Created by potrace 1.10, written by Peter Selinger 2001-2011
</metadata>
<g transform="translate(0.000000,300.000000) scale(0.100000,-0.100000)"
fill="#000000" stroke="none">
<path d="M704 2205 c-2 -5 -3 -326 -2 -713 l3 -702 795 0 795 0 0 710 0 710
-794 3 c-522 1 -795 -1 -797 -8z m1566 -170 l0 -145 -770 0 -770 0 0 145 0
145 770 0 770 0 0 -145z m0 -695 l0 -520 -770 0 -770 0 0 520 0 520 770 0 770
0 0 -520z"/>
<path d="M1820 2070 c-24 -24 -25 -48 -4 -78 32 -46 114 -17 114 40 0 26 -36
58 -65 58 -14 0 -34 -9 -45 -20z m60 -50 c-13 -25 -17 -25 -30 0 -15 28 -4 43
21 30 15 -9 17 -15 9 -30z"/>
<path d="M2036 2068 c-32 -45 -8 -98 45 -98 30 0 43 9 59 39 28 55 -68 110
-104 59z m69 -35 c8 -21 -7 -35 -28 -27 -17 6 -23 35 -11 47 9 9 32 -3 39 -20z"/>
<path d="M2187 1793 c-10 -10 -7 -825 3 -848 5 -12 9 164 9 418 1 240 0 437
-2 437 -2 0 -7 -3 -10 -7z"/>
<path d="M1544 1597 c-12 -33 -122 -542 -118 -549 20 -32 34 9 87 250 32 141
60 267 63 278 6 24 -23 43 -32 21z"/>
<path d="M1113 1443 c-62 -63 -113 -120 -113 -127 0 -15 222 -236 238 -236 30
0 5 36 -94 132 l-106 103 111 110 c61 60 111 115 111 122 0 33 -43 2 -147
-104z"/>
<path d="M1740 1547 c0 -7 50 -62 111 -122 l110 -109 -105 -103 c-98 -95 -125
-133 -93 -133 15 0 237 221 237 236 0 16 -232 244 -247 244 -7 0 -13 -6 -13
-13z"/>
<path d="M790 910 c21 -13 1350 -13 1350 0 0 7 -234 10 -682 10 -445 0 -678
-4 -668 -10z"/>
</g>
</svg>
