<svg version="1.1" id="Layer_1" xmlns="http://www.w3.org/2000/svg" xmlns:xlink="http://www.w3.org/1999/xlink" x="0px" y="0px"
	 width="100%" viewBox="0 0 300 100" enable-background="new 0 0 300 100" xml:space="preserve">
<path fill="#010101" opacity="1.000000" stroke="none" 
	d="
M210.000000,101.000000 
	C140.000015,101.000000 70.500038,101.000000 1.000046,101.000000 
	C1.000031,67.666695 1.000031,34.333393 1.000015,1.000046 
	C50.999954,1.000000 100.999908,1.000000 150.999863,1.000000 
	C200.999847,1.000000 250.999832,1.000000 300.999878,1.000000 
	C300.999908,34.333263 300.999908,67.666527 300.999939,100.999893 
	C270.833344,101.000000 240.666672,101.000000 210.000000,101.000000 
M149.312592,31.235710 
	C148.531372,30.092489 147.750153,28.949270 146.988541,27.834734 
	C129.483643,38.645309 129.661285,56.845425 146.982559,66.979485 
	C149.922806,64.944801 149.507294,63.404049 146.986160,60.887356 
	C144.154282,58.060436 142.198547,54.355816 140.452682,50.581936 
	C141.448914,44.168163 145.079025,39.399654 150.078018,35.601238 
	C152.419205,33.822311 151.937485,32.831562 149.312592,31.235710 
M159.037598,56.917725 
	C158.864197,54.615707 158.730560,52.309879 158.510162,50.012371 
	C157.744980,42.035576 160.283890,38.443359 167.370926,38.581772 
	C169.235321,38.691288 171.099716,38.800808 173.771118,38.957729 
	C171.556137,33.685165 168.716095,31.326235 164.296036,30.990814 
	C159.919235,30.658678 155.994171,31.421650 153.416489,35.483059 
	C149.855743,41.093349 150.180618,54.580914 153.995224,59.953411 
	C156.896667,64.039803 161.038437,64.788925 165.522690,63.937153 
	C169.356537,63.208908 171.782257,60.749279 173.062851,55.182926 
	C170.369720,56.130989 168.420425,56.334274 167.140976,57.367245 
	C164.402847,59.577881 161.866165,59.792065 159.037598,56.917725 
M220.284485,59.630962 
	C226.696625,66.161057 236.005005,65.751999 240.525421,57.637753 
	C237.955795,57.944809 235.972214,57.787357 234.317810,58.450809 
	C228.516525,60.777264 224.151855,58.717445 224.199356,52.937923 
	C229.762466,52.937923 235.337097,52.937923 240.871613,52.937923 
	C241.097504,44.967625 239.278824,41.531929 234.336472,40.085236 
	C228.069717,38.250866 222.747650,40.151402 218.956711,44.913456 
	C218.752777,44.862846 218.548859,44.812241 218.401688,43.855652 
	C218.401688,39.921055 218.401688,35.986458 218.401688,31.949198 
	C216.596436,31.949198 215.239990,31.949198 213.549942,31.949198 
	C213.549942,34.885094 213.549942,37.474506 213.549942,40.305176 
	C211.592178,40.053932 209.999390,39.755016 208.394485,39.659481 
	C200.221909,39.172981 196.112305,43.423767 196.239044,52.166618 
	C196.355118,60.175045 201.005020,64.594116 208.770981,64.019943 
	C211.823120,63.794281 214.867386,63.462299 218.184952,63.153645 
	C218.256378,61.842518 218.326233,60.560486 218.947205,59.096500 
	C219.298843,59.063599 219.650467,59.030697 220.284485,59.630962 
M105.295113,58.733578 
	C100.259804,58.733578 95.224487,58.733578 89.975975,58.733578 
	C90.298134,57.698559 90.296806,57.296684 90.494545,57.127575 
	C94.410622,53.778522 98.423294,50.538788 102.265579,47.107994 
	C107.072540,42.815842 107.109871,36.128960 102.491348,32.859203 
	C97.642059,29.426071 88.975914,30.636318 83.876411,36.514332 
	C86.711807,36.514332 88.555168,36.593662 90.388084,36.489338 
	C91.865433,36.405247 93.424133,35.682796 94.778702,35.988400 
	C96.865799,36.459267 98.809128,37.567390 100.813446,38.405186 
	C99.890297,40.372173 99.426949,42.825974 97.957176,44.214233 
	C93.666969,48.266502 88.974899,51.893307 84.138260,55.939613 
	C83.257492,47.807091 82.392982,39.824753 81.551643,32.056351 
	C77.954567,30.858482 76.136688,31.657610 75.460701,35.194668 
	C74.835571,38.465622 73.619957,41.623730 72.682312,44.771370 
	C68.096626,41.303181 72.580971,31.696562 62.986206,31.517181 
	C61.884094,42.391273 60.833759,52.754524 59.738430,63.561676 
	C61.764347,63.438896 63.150925,63.354862 64.562332,63.269325 
	C65.171440,57.923748 65.733208,52.993549 66.294983,48.063351 
	C68.263596,50.365871 68.868240,52.737442 69.797859,54.973930 
	C70.293762,56.167004 71.351089,57.126713 72.155029,58.191742 
	C73.088631,57.067837 74.362358,56.081280 74.883469,54.790802 
	C75.898857,52.276283 76.492767,49.591560 77.261238,46.977329 
	C77.566101,47.024574 77.870964,47.071819 78.175827,47.119064 
	C78.782654,52.529770 79.389481,57.940472 79.982841,63.231117 
	C88.816109,63.231117 97.235817,63.231117 105.765381,63.231117 
	C105.765381,61.203976 105.765381,59.517559 106.553085,57.762524 
	C110.250549,63.319592 115.013535,65.335793 120.985573,63.713604 
	C125.015144,62.619045 127.686272,60.112572 128.201385,55.798351 
	C128.742355,51.267632 126.809120,48.037758 122.644791,46.277199 
	C120.206917,45.246529 117.458900,44.822044 115.219261,43.499989 
	C113.972595,42.764084 112.806870,40.719124 112.863655,39.315044 
	C112.909706,38.176647 114.670219,36.531490 115.967743,36.165474 
	C117.594025,35.706726 119.523521,36.333515 121.323357,36.476482 
	C123.234138,36.628265 125.146339,36.762138 128.203384,36.988743 
	C123.835991,31.393625 118.929871,29.798111 114.004326,31.482462 
	C110.214516,32.778435 107.865990,35.303528 107.730141,39.520634 
	C107.591515,43.823654 109.177086,46.910366 113.560921,48.204243 
	C115.624893,48.813419 117.921913,49.221558 119.581573,50.443207 
	C121.177109,51.617672 122.086159,53.724743 123.296844,55.422031 
	C121.545341,56.662373 119.843452,58.808060 118.029419,58.907475 
	C115.896118,59.024380 113.379860,57.750950 111.543419,56.388142 
	C108.718681,54.291924 107.029137,54.532902 105.295113,58.733578 
M180.180862,27.229639 
	C176.157257,28.217014 176.750015,30.769905 179.359344,32.046555 
	C182.489304,33.577934 182.760529,35.723122 182.746277,38.489178 
	C182.715317,44.505344 182.744125,50.521793 182.732712,56.538097 
	C182.727280,59.398445 182.949661,62.229366 179.033386,63.170143 
	C178.280045,63.351112 178.101868,65.926338 177.601578,67.585297 
	C184.645035,67.874908 187.515518,65.075790 187.973557,58.827816 
	C188.229080,55.342354 186.273560,50.958920 191.516724,49.089996 
	C191.896896,48.954491 191.765045,45.342003 191.303513,45.200726 
	C186.584732,43.756271 188.035538,39.971432 187.979141,36.902412 
	C187.888443,31.966316 185.932678,28.594620 180.180862,27.229639 
z"/>
<path fill="#EEEEEE" opacity="1.000000" stroke="none" 
	d="
M105.765381,57.831142 
	C105.765381,59.517559 105.765381,61.203976 105.765381,63.231117 
	C97.235817,63.231117 88.816109,63.231117 79.982841,63.231117 
	C79.389481,57.940472 78.782654,52.529770 78.175827,47.119064 
	C77.870964,47.071819 77.566101,47.024574 77.261238,46.977329 
	C76.492767,49.591560 75.898857,52.276283 74.883469,54.790802 
	C74.362358,56.081280 73.088631,57.067837 72.155029,58.191742 
	C71.351089,57.126713 70.293762,56.167004 69.797859,54.973930 
	C68.868240,52.737442 68.263596,50.365871 66.294983,48.063351 
	C65.733208,52.993549 65.171440,57.923748 64.562332,63.269325 
	C63.150925,63.354862 61.764347,63.438896 59.738430,63.561676 
	C60.833759,52.754524 61.884094,42.391273 62.986206,31.517181 
	C72.580971,31.696562 68.096626,41.303181 72.682312,44.771370 
	C73.619957,41.623730 74.835571,38.465622 75.460701,35.194668 
	C76.136688,31.657610 77.954567,30.858482 81.551643,32.056351 
	C82.392982,39.824753 83.257492,47.807091 84.138260,55.939613 
	C88.974899,51.893307 93.666969,48.266502 97.957176,44.214233 
	C99.426949,42.825974 99.890297,40.372173 100.813446,38.405182 
	C98.809128,37.567390 96.865799,36.459267 94.778702,35.988400 
	C93.424133,35.682796 91.865433,36.405247 90.388084,36.489338 
	C88.555168,36.593662 86.711807,36.514332 83.876411,36.514332 
	C88.975914,30.636318 97.642059,29.426071 102.491348,32.859203 
	C107.109871,36.128960 107.072540,42.815842 102.265579,47.107994 
	C98.423294,50.538788 94.410622,53.778522 90.494545,57.127575 
	C90.296806,57.296684 90.298134,57.698559 89.975975,58.733578 
	C95.224487,58.733578 100.259804,58.733578 105.565170,58.304771 
	C105.835220,57.875961 105.765381,57.831142 105.765381,57.831142 
z"/>
<path fill="#EFEFEF" opacity="1.000000" stroke="none" 
	d="
M105.860062,57.909191 
	C107.029137,54.532902 108.718681,54.291924 111.543419,56.388142 
	C113.379860,57.750950 115.896118,59.024380 118.029419,58.907475 
	C119.843452,58.808060 121.545341,56.662373 123.296844,55.422028 
	C122.086159,53.724743 121.177109,51.617672 119.581573,50.443207 
	C117.921913,49.221558 115.624893,48.813419 113.560921,48.204243 
	C109.177086,46.910366 107.591515,43.823654 107.730141,39.520634 
	C107.865990,35.303528 110.214516,32.778435 114.004326,31.482462 
	C118.929871,29.798111 123.835991,31.393625 128.203384,36.988743 
	C125.146339,36.762138 123.234138,36.628265 121.323357,36.476482 
	C119.523521,36.333515 117.594025,35.706726 115.967743,36.165474 
	C114.670219,36.531490 112.909706,38.176647 112.863655,39.315044 
	C112.806870,40.719124 113.972595,42.764084 115.219261,43.499989 
	C117.458900,44.822044 120.206917,45.246529 122.644791,46.277199 
	C126.809120,48.037758 128.742355,51.267632 128.201385,55.798351 
	C127.686272,60.112572 125.015144,62.619045 120.985573,63.713604 
	C115.013535,65.335793 110.250549,63.319592 106.159233,57.796833 
	C105.765381,57.831142 105.835220,57.875961 105.860062,57.909191 
z"/>
<path fill="#F3F3F3" opacity="1.000000" stroke="none" 
	d="
M218.396088,59.278458 
	C218.326233,60.560486 218.256378,61.842518 218.184952,63.153645 
	C214.867386,63.462299 211.823120,63.794281 208.770981,64.019943 
	C201.005020,64.594116 196.355118,60.175045 196.239044,52.166618 
	C196.112305,43.423767 200.221909,39.172981 208.394485,39.659481 
	C209.999390,39.755016 211.592178,40.053932 213.549942,40.305176 
	C213.549942,37.474506 213.549942,34.885094 213.549942,31.949198 
	C215.239990,31.949198 216.596436,31.949198 218.401688,31.949198 
	C218.401688,35.986458 218.401688,39.921055 218.224121,44.770813 
	C218.163071,50.216801 218.279587,54.747627 218.396088,59.278458 
M205.179138,44.637383 
	C199.966843,46.125893 200.674728,50.543846 201.377228,54.023182 
	C201.773483,55.985714 204.357605,58.388557 206.408005,58.953655 
	C210.843109,60.175987 213.315948,57.886162 213.694077,53.352692 
	C214.263733,46.522804 212.580566,44.591015 205.179138,44.637383 
z"/>
<path fill="#F0F0F0" opacity="1.000000" stroke="none" 
	d="
M219.242020,45.475533 
	C222.747650,40.151402 228.069717,38.250866 234.336472,40.085236 
	C239.278824,41.531929 241.097504,44.967625 240.871613,52.937923 
	C235.337097,52.937923 229.762466,52.937923 224.199356,52.937923 
	C224.151855,58.717445 228.516525,60.777264 234.317810,58.450809 
	C235.972214,57.787357 237.955795,57.944809 240.525421,57.637753 
	C236.005005,65.751999 226.696625,66.161057 220.138367,58.895683 
	C219.742157,53.932110 219.492081,49.703823 219.242020,45.475533 
M235.832077,47.148113 
	C231.473465,42.894173 226.042847,43.317543 224.362015,47.992840 
	C228.121307,47.992840 231.898087,47.992840 235.832077,47.148113 
z"/>
<path fill="#01C2F0" opacity="1.000000" stroke="none" 
	d="
M159.064438,57.768410 
	C161.866165,59.792065 164.402847,59.577881 167.140976,57.367245 
	C168.420425,56.334274 170.369720,56.130989 173.062851,55.182926 
	C171.782257,60.749279 169.356537,63.208908 165.522690,63.937153 
	C161.038437,64.788925 156.896667,64.039803 153.995224,59.953411 
	C150.180618,54.580914 149.855743,41.093349 153.416489,35.483059 
	C155.994171,31.421650 159.919235,30.658678 164.296036,30.990814 
	C168.716095,31.326235 171.556137,33.685165 173.771118,38.957729 
	C171.099716,38.800808 169.235321,38.691288 167.138687,37.908569 
	C163.369598,35.208935 159.937134,34.916073 157.437836,38.661465 
	C154.718811,42.736137 155.813614,53.622032 159.064438,57.768410 
z"/>
<path fill="#7A7A7A" opacity="1.000000" stroke="none" 
	d="
M180.569748,27.283752 
	C185.932678,28.594620 187.888443,31.966316 187.979141,36.902412 
	C188.035538,39.971432 186.584732,43.756271 191.303513,45.200726 
	C191.765045,45.342003 191.896896,48.954491 191.516724,49.089996 
	C186.273560,50.958920 188.229080,55.342354 187.973557,58.827816 
	C187.515518,65.075790 184.645035,67.874908 177.601578,67.585297 
	C178.101868,65.926338 178.280045,63.351112 179.033386,63.170143 
	C182.949661,62.229366 182.727280,59.398445 182.732712,56.538097 
	C182.744125,50.521793 182.715317,44.505344 182.746277,38.489178 
	C182.760529,35.723122 182.489304,33.577934 179.359344,32.046555 
	C176.750015,30.769905 176.157257,28.217014 180.569748,27.283752 
z"/>
<path fill="#7B7B7B" opacity="1.000000" stroke="none" 
	d="
M139.861649,51.033035 
	C142.198547,54.355816 144.154282,58.060436 146.986160,60.887356 
	C149.507294,63.404049 149.922806,64.944801 146.982559,66.979485 
	C129.661285,56.845425 129.483643,38.645309 146.988541,27.834734 
	C147.750153,28.949270 148.531372,30.092489 149.119720,31.785212 
	C147.495834,33.449879 145.953064,34.449139 144.654160,35.701340 
	C140.282684,39.915676 137.338211,44.636620 139.861649,51.033035 
z"/>
<path fill="#172023" opacity="1.000000" stroke="none" 
	d="
M159.051025,57.343067 
	C155.813614,53.622032 154.718811,42.736137 157.437836,38.661465 
	C159.937134,34.916073 163.369598,35.208935 166.968506,37.626213 
	C160.283890,38.443359 157.744980,42.035576 158.510162,50.012371 
	C158.730560,52.309879 158.864197,54.615707 159.051025,57.343067 
z"/>
<path fill="#1B1B1B" opacity="1.000000" stroke="none" 
	d="
M140.157166,50.807487 
	C137.338211,44.636620 140.282684,39.915676 144.654160,35.701340 
	C145.953064,34.449139 147.495834,33.449879 149.235596,32.132053 
	C151.937485,32.831562 152.419205,33.822311 150.078018,35.601238 
	C145.079025,39.399654 141.448914,44.168163 140.157166,50.807487 
z"/>
<path fill="#818181" opacity="1.000000" stroke="none" 
	d="
M219.099365,45.194496 
	C219.492081,49.703823 219.742157,53.932110 219.997162,58.579094 
	C219.650467,59.030697 219.298843,59.063599 218.671661,59.187477 
	C218.279587,54.747627 218.163071,50.216801 218.195740,45.223801 
	C218.548859,44.812241 218.752777,44.862846 219.099365,45.194496 
z"/>
<path fill="#0C0C0C" opacity="1.000000" stroke="none" 
	d="
M205.558899,44.544590 
	C212.580566,44.591015 214.263733,46.522804 213.694077,53.352692 
	C213.315948,57.886162 210.843109,60.175987 206.408005,58.953655 
	C204.357605,58.388557 201.773483,55.985714 201.377228,54.023182 
	C200.674728,50.543846 199.966843,46.125893 205.558899,44.544590 
z"/>
<path fill="#181818" opacity="1.000000" stroke="none" 
	d="
M235.753479,47.570477 
	C231.898087,47.992840 228.121307,47.992840 224.362015,47.992840 
	C226.042847,43.317543 231.473465,42.894173 235.753479,47.570477 
z"/>
</svg>