<?xml version="1.0"?>
<svg version="1.1" xmlns="http://www.w3.org/2000/svg" width="500px" height="500px" style="margin: 50px;">
  <path fill="none" stroke="#23AAF2" stroke-width="10" d="M147,199l39,0c-28.5,43.5-46.8,98.7-46.8,146.4c0,51.3,17.4,111.6,46.5,153.6l-38.7,0c-33.9-48-49.8-91.8-49.8-153c0-57.3,16.8-99,49.8-147z M347.106,299.2l0-40.2c0-24-7.5-30.6-36-30.6l0-30.9l20.1,0c36.6,0,54.6,16.5,54.6,55.5l0,42.3c0,18,6,31.2,28.5,31.2l0,30c-22.5,0-28.5,13.2-28.5,31.2l0,46.2c0,45.3-15,63.6-54.9,63.6l-19.8,0l0-30.9c28.5,0,36-6.6,36-30.6l0-51.9c0-21.6,10.2-35.7,27.9-42.6c-17.7-6.9-27.9-20.7-27.9-42.3z"/>
  <text x="50%" y="50%" font-family="Fira Code, monospace" font-weight="600" font-size="450" fill="none" stroke="#23AAF2" stroke-width="10" text-anchor="middle" dominant-baseline="central">( }</text>
</svg>
